<mxfile host="Electron" agent="Mozilla/5.0 (Windows NT 10.0; Win64; x64) AppleWebKit/537.36 (KHTML, like Gecko) draw.io/24.7.17 Chrome/128.0.6613.36 Electron/32.0.1 Safari/537.36" version="24.7.17">
  <diagram name="Page-1" id="v0021uvxIV_KChGc3sIn">
    <mxGraphModel dx="4303" dy="4540" grid="1" gridSize="10" guides="1" tooltips="1" connect="1" arrows="1" fold="1" page="1" pageScale="1" pageWidth="850" pageHeight="1100" math="0" shadow="0">
      <root>
        <mxCell id="0" />
        <mxCell id="1" parent="0" />
        <mxCell id="rXHbmidsyB8I2zzbeeDN-1" value="START" style="strokeWidth=2;html=1;shape=mxgraph.flowchart.terminator;whiteSpace=wrap;fontFamily=Times New Roman;" parent="1" vertex="1">
          <mxGeometry x="380" y="-1920" width="110" height="50" as="geometry" />
        </mxCell>
        <mxCell id="rXHbmidsyB8I2zzbeeDN-6" value="1.REGISTER&lt;div style=&quot;text-align: left;&quot;&gt;2.LOGIN&lt;/div&gt;&lt;div style=&quot;text-align: left;&quot;&gt;3.KELUAR&lt;/div&gt;" style="whiteSpace=wrap;html=1;" parent="1" vertex="1">
          <mxGeometry x="382.5" y="-1675" width="105" height="50" as="geometry" />
        </mxCell>
        <mxCell id="rXHbmidsyB8I2zzbeeDN-8" value="USER LOGIN" style="whiteSpace=wrap;html=1;" parent="1" vertex="1">
          <mxGeometry x="378" y="-980" width="110" height="70" as="geometry" />
        </mxCell>
        <mxCell id="rXHbmidsyB8I2zzbeeDN-9" value="" style="endArrow=classic;html=1;rounded=0;exitX=0.5;exitY=1;exitDx=0;exitDy=0;exitPerimeter=0;" parent="1" source="rXHbmidsyB8I2zzbeeDN-1" target="rXHbmidsyB8I2zzbeeDN-6" edge="1">
          <mxGeometry width="50" height="50" relative="1" as="geometry">
            <mxPoint x="490" y="-1960" as="sourcePoint" />
            <mxPoint x="390" y="-1000" as="targetPoint" />
          </mxGeometry>
        </mxCell>
        <mxCell id="rXHbmidsyB8I2zzbeeDN-10" value="" style="endArrow=classic;html=1;rounded=0;entryX=0.402;entryY=0.09;entryDx=0;entryDy=0;exitX=0.5;exitY=1;exitDx=0;exitDy=0;entryPerimeter=0;" parent="1" source="rXHbmidsyB8I2zzbeeDN-11" target="rXHbmidsyB8I2zzbeeDN-11" edge="1">
          <mxGeometry width="50" height="50" relative="1" as="geometry">
            <mxPoint x="400.5" y="-870" as="sourcePoint" />
            <mxPoint x="450.5" y="-920" as="targetPoint" />
          </mxGeometry>
        </mxCell>
        <mxCell id="4TKAlUQMHLMQeYQkOLo5-2" style="edgeStyle=orthogonalEdgeStyle;rounded=0;orthogonalLoop=1;jettySize=auto;html=1;exitX=0.5;exitY=0;exitDx=0;exitDy=0;exitPerimeter=0;entryX=0;entryY=0.75;entryDx=0;entryDy=0;" parent="1" source="rXHbmidsyB8I2zzbeeDN-11" target="rXHbmidsyB8I2zzbeeDN-6" edge="1">
          <mxGeometry relative="1" as="geometry" />
        </mxCell>
        <mxCell id="rXHbmidsyB8I2zzbeeDN-11" value="AKUN TERDAFTAR?" style="strokeWidth=2;html=1;shape=mxgraph.flowchart.decision;whiteSpace=wrap;" parent="1" vertex="1">
          <mxGeometry x="37.5" y="-1480" width="115" height="110" as="geometry" />
        </mxCell>
        <mxCell id="4TKAlUQMHLMQeYQkOLo5-4" style="edgeStyle=orthogonalEdgeStyle;rounded=0;orthogonalLoop=1;jettySize=auto;html=1;exitX=0.5;exitY=0;exitDx=0;exitDy=0;entryX=0;entryY=0.25;entryDx=0;entryDy=0;" parent="1" source="rXHbmidsyB8I2zzbeeDN-15" target="rXHbmidsyB8I2zzbeeDN-6" edge="1">
          <mxGeometry relative="1" as="geometry" />
        </mxCell>
        <mxCell id="rXHbmidsyB8I2zzbeeDN-15" value="AKUN TIDAK TERDAFTAR/AKUN SUDAH ADA" style="whiteSpace=wrap;html=1;" parent="1" vertex="1">
          <mxGeometry x="-310" y="-1452.5" width="120" height="55" as="geometry" />
        </mxCell>
        <mxCell id="rXHbmidsyB8I2zzbeeDN-16" value="" style="endArrow=classic;html=1;rounded=0;exitX=0;exitY=0.5;exitDx=0;exitDy=0;exitPerimeter=0;entryX=1;entryY=0.5;entryDx=0;entryDy=0;" parent="1" source="rXHbmidsyB8I2zzbeeDN-18" target="rXHbmidsyB8I2zzbeeDN-15" edge="1">
          <mxGeometry width="50" height="50" relative="1" as="geometry">
            <mxPoint x="400" y="-830" as="sourcePoint" />
            <mxPoint x="450" y="-880" as="targetPoint" />
          </mxGeometry>
        </mxCell>
        <mxCell id="NfpK6JRWBrip7_dLDp5m-41" style="edgeStyle=orthogonalEdgeStyle;rounded=0;orthogonalLoop=1;jettySize=auto;html=1;exitX=0.5;exitY=0;exitDx=0;exitDy=0;entryX=0.25;entryY=1;entryDx=0;entryDy=0;" edge="1" parent="1" source="rXHbmidsyB8I2zzbeeDN-20" target="rXHbmidsyB8I2zzbeeDN-8">
          <mxGeometry relative="1" as="geometry">
            <Array as="points">
              <mxPoint x="95" y="-830" />
              <mxPoint x="408" y="-830" />
              <mxPoint x="408" y="-910" />
            </Array>
          </mxGeometry>
        </mxCell>
        <mxCell id="rXHbmidsyB8I2zzbeeDN-20" value="USERNAME/PASSWORD SALAH" style="whiteSpace=wrap;html=1;" parent="1" vertex="1">
          <mxGeometry x="20" y="-525" width="150" height="55" as="geometry" />
        </mxCell>
        <mxCell id="rXHbmidsyB8I2zzbeeDN-22" value="" style="endArrow=classic;html=1;rounded=0;entryX=1;entryY=0.5;entryDx=0;entryDy=0;exitX=0;exitY=0.5;exitDx=0;exitDy=0;exitPerimeter=0;" parent="1" source="rXHbmidsyB8I2zzbeeDN-21" target="rXHbmidsyB8I2zzbeeDN-20" edge="1">
          <mxGeometry width="50" height="50" relative="1" as="geometry">
            <mxPoint x="360" y="-490" as="sourcePoint" />
            <mxPoint x="450" y="-880" as="targetPoint" />
          </mxGeometry>
        </mxCell>
        <mxCell id="rXHbmidsyB8I2zzbeeDN-23" value="AKUN TERSEDIA" style="strokeWidth=2;html=1;shape=mxgraph.flowchart.decision;whiteSpace=wrap;" parent="1" vertex="1">
          <mxGeometry x="376.5" y="-550" width="112" height="105" as="geometry" />
        </mxCell>
        <mxCell id="rXHbmidsyB8I2zzbeeDN-24" value="" style="endArrow=classic;html=1;rounded=0;entryX=0.5;entryY=0;entryDx=0;entryDy=0;entryPerimeter=0;exitX=0.5;exitY=1;exitDx=0;exitDy=0;" parent="1" source="NfpK6JRWBrip7_dLDp5m-44" target="rXHbmidsyB8I2zzbeeDN-23" edge="1">
          <mxGeometry width="50" height="50" relative="1" as="geometry">
            <mxPoint x="428" y="-610" as="sourcePoint" />
            <mxPoint x="435" y="-652" as="targetPoint" />
          </mxGeometry>
        </mxCell>
        <mxCell id="rXHbmidsyB8I2zzbeeDN-27" value="" style="endArrow=classic;html=1;rounded=0;exitX=0.5;exitY=1;exitDx=0;exitDy=0;exitPerimeter=0;entryX=0.5;entryY=0;entryDx=0;entryDy=0;entryPerimeter=0;" parent="1" source="rXHbmidsyB8I2zzbeeDN-25" target="rXHbmidsyB8I2zzbeeDN-28" edge="1">
          <mxGeometry width="50" height="50" relative="1" as="geometry">
            <mxPoint x="438" y="-600" as="sourcePoint" />
            <mxPoint x="426" y="-380" as="targetPoint" />
          </mxGeometry>
        </mxCell>
        <mxCell id="rXHbmidsyB8I2zzbeeDN-28" value="AKUN ADMIN" style="strokeWidth=2;html=1;shape=mxgraph.flowchart.decision;whiteSpace=wrap;" parent="1" vertex="1">
          <mxGeometry x="376.5" y="-370" width="112" height="105" as="geometry" />
        </mxCell>
        <mxCell id="rXHbmidsyB8I2zzbeeDN-29" value="" style="endArrow=classic;html=1;rounded=0;exitX=1;exitY=0.5;exitDx=0;exitDy=0;exitPerimeter=0;entryX=0;entryY=0.5;entryDx=0;entryDy=0;" parent="1" source="rXHbmidsyB8I2zzbeeDN-36" target="rXHbmidsyB8I2zzbeeDN-30" edge="1">
          <mxGeometry width="50" height="50" relative="1" as="geometry">
            <mxPoint x="387" y="-487" as="sourcePoint" />
            <mxPoint x="560" y="-320" as="targetPoint" />
          </mxGeometry>
        </mxCell>
        <mxCell id="rXHbmidsyB8I2zzbeeDN-30" value="MENU USER" style="whiteSpace=wrap;html=1;" parent="1" vertex="1">
          <mxGeometry x="610" y="-345" width="150" height="55" as="geometry" />
        </mxCell>
        <mxCell id="rXHbmidsyB8I2zzbeeDN-31" value="&lt;div style=&quot;text-align: left;&quot;&gt;&lt;span style=&quot;background-color: initial;&quot;&gt;1.TAMBAH DATA&lt;/span&gt;&lt;/div&gt;&lt;div&gt;2.TAMPILKAN DATA&lt;/div&gt;&lt;div style=&quot;text-align: left;&quot;&gt;3.KELUAR&lt;/div&gt;" style="whiteSpace=wrap;html=1;" parent="1" vertex="1">
          <mxGeometry x="610" y="-180" width="150" height="55" as="geometry" />
        </mxCell>
        <mxCell id="rXHbmidsyB8I2zzbeeDN-32" value="" style="endArrow=classic;html=1;rounded=0;entryX=0.5;entryY=0;entryDx=0;entryDy=0;exitX=0.5;exitY=1;exitDx=0;exitDy=0;" parent="1" source="rXHbmidsyB8I2zzbeeDN-30" target="rXHbmidsyB8I2zzbeeDN-31" edge="1">
          <mxGeometry width="50" height="50" relative="1" as="geometry">
            <mxPoint x="730" y="-250" as="sourcePoint" />
            <mxPoint x="750" y="-200" as="targetPoint" />
          </mxGeometry>
        </mxCell>
        <mxCell id="rXHbmidsyB8I2zzbeeDN-34" value="" style="endArrow=classic;html=1;rounded=0;exitX=0.5;exitY=1;exitDx=0;exitDy=0;exitPerimeter=0;entryX=0.5;entryY=0;entryDx=0;entryDy=0;" parent="1" source="rXHbmidsyB8I2zzbeeDN-37" target="rXHbmidsyB8I2zzbeeDN-35" edge="1">
          <mxGeometry width="50" height="50" relative="1" as="geometry">
            <mxPoint x="443" y="-435" as="sourcePoint" />
            <mxPoint x="443" y="-360" as="targetPoint" />
          </mxGeometry>
        </mxCell>
        <mxCell id="rXHbmidsyB8I2zzbeeDN-35" value="MENU ADMIN" style="whiteSpace=wrap;html=1;" parent="1" vertex="1">
          <mxGeometry x="357.5" y="-180" width="150" height="55" as="geometry" />
        </mxCell>
        <mxCell id="rXHbmidsyB8I2zzbeeDN-38" value="&lt;div style=&quot;text-align: left;&quot;&gt;&lt;span style=&quot;background-color: initial;&quot;&gt;1.TAMBAH DATA&lt;/span&gt;&lt;/div&gt;&lt;div&gt;2.TAMPILKAN DATA&lt;/div&gt;&lt;div style=&quot;text-align: left;&quot;&gt;3.UBAH DATA&lt;/div&gt;&lt;div style=&quot;text-align: left;&quot;&gt;4.HAPUS DATA&lt;/div&gt;&lt;div style=&quot;text-align: left;&quot;&gt;5.KELUAR&lt;/div&gt;" style="whiteSpace=wrap;html=1;" parent="1" vertex="1">
          <mxGeometry x="360" y="5" width="147.5" height="75" as="geometry" />
        </mxCell>
        <mxCell id="rXHbmidsyB8I2zzbeeDN-39" value="" style="endArrow=classic;html=1;rounded=0;exitX=0.5;exitY=1;exitDx=0;exitDy=0;" parent="1" source="rXHbmidsyB8I2zzbeeDN-35" target="rXHbmidsyB8I2zzbeeDN-38" edge="1">
          <mxGeometry width="50" height="50" relative="1" as="geometry">
            <mxPoint x="443" y="-255" as="sourcePoint" />
            <mxPoint x="443" y="-170" as="targetPoint" />
          </mxGeometry>
        </mxCell>
        <mxCell id="rXHbmidsyB8I2zzbeeDN-41" value="IF&amp;nbsp;&lt;div&gt;pilih==1&lt;/div&gt;" style="strokeWidth=2;html=1;shape=mxgraph.flowchart.decision;whiteSpace=wrap;" parent="1" vertex="1">
          <mxGeometry x="629" y="-10" width="112" height="105" as="geometry" />
        </mxCell>
        <mxCell id="rXHbmidsyB8I2zzbeeDN-43" value="" style="endArrow=classic;html=1;rounded=0;exitX=1;exitY=0.5;exitDx=0;exitDy=0;exitPerimeter=0;" parent="1" source="rXHbmidsyB8I2zzbeeDN-55" target="rXHbmidsyB8I2zzbeeDN-48" edge="1">
          <mxGeometry width="50" height="50" relative="1" as="geometry">
            <mxPoint x="741" y="-3.61" as="sourcePoint" />
            <mxPoint x="800" y="43" as="targetPoint" />
          </mxGeometry>
        </mxCell>
        <mxCell id="rXHbmidsyB8I2zzbeeDN-44" value="" style="endArrow=classic;html=1;rounded=0;exitX=0.5;exitY=1;exitDx=0;exitDy=0;entryX=0.5;entryY=0;entryDx=0;entryDy=0;entryPerimeter=0;" parent="1" source="rXHbmidsyB8I2zzbeeDN-31" target="rXHbmidsyB8I2zzbeeDN-41" edge="1">
          <mxGeometry width="50" height="50" relative="1" as="geometry">
            <mxPoint x="680" y="-130" as="sourcePoint" />
            <mxPoint x="680" y="-20" as="targetPoint" />
          </mxGeometry>
        </mxCell>
        <mxCell id="rXHbmidsyB8I2zzbeeDN-48" value="input&lt;br style=&quot;border-color: var(--border-color);&quot;&gt;1. klub&lt;br style=&quot;border-color: var(--border-color);&quot;&gt;2.value market&lt;br style=&quot;border-color: var(--border-color);&quot;&gt;3.daerah&lt;br style=&quot;border-color: var(--border-color);&quot;&gt;4.pemilik" style="shape=parallelogram;html=1;strokeWidth=2;perimeter=parallelogramPerimeter;whiteSpace=wrap;rounded=1;arcSize=12;size=0.23;align=center;" parent="1" vertex="1">
          <mxGeometry x="830" y="-10" width="220" height="107.5" as="geometry" />
        </mxCell>
        <mxCell id="rXHbmidsyB8I2zzbeeDN-50" value="" style="endArrow=classic;html=1;rounded=0;exitX=0.5;exitY=1;exitDx=0;exitDy=0;entryX=0.5;entryY=0;entryDx=0;entryDy=0;entryPerimeter=0;" parent="1" edge="1" source="rXHbmidsyB8I2zzbeeDN-56">
          <mxGeometry width="50" height="50" relative="1" as="geometry">
            <mxPoint x="684.41" y="95" as="sourcePoint" />
            <mxPoint x="684.41" y="210" as="targetPoint" />
          </mxGeometry>
        </mxCell>
        <mxCell id="rXHbmidsyB8I2zzbeeDN-51" value="IF&amp;nbsp;&lt;div&gt;pilih==2&lt;/div&gt;" style="strokeWidth=2;html=1;shape=mxgraph.flowchart.decision;whiteSpace=wrap;" parent="1" vertex="1">
          <mxGeometry x="629" y="210" width="112" height="105" as="geometry" />
        </mxCell>
        <mxCell id="rXHbmidsyB8I2zzbeeDN-52" value="1. klub&lt;br style=&quot;border-color: var(--border-color); text-align: center;&quot;&gt;&lt;span style=&quot;border-color: var(--border-color); text-align: center;&quot;&gt;2.value market&lt;/span&gt;&lt;br style=&quot;border-color: var(--border-color); text-align: center;&quot;&gt;&lt;span style=&quot;border-color: var(--border-color); text-align: center;&quot;&gt;3.daerah&lt;/span&gt;&lt;br style=&quot;border-color: var(--border-color); text-align: center;&quot;&gt;&lt;span style=&quot;border-color: var(--border-color); text-align: center;&quot;&gt;4.pemilik&lt;/span&gt;" style="whiteSpace=wrap;html=1;align=left;" parent="1" vertex="1">
          <mxGeometry x="850" y="235" width="150" height="55" as="geometry" />
        </mxCell>
        <mxCell id="rXHbmidsyB8I2zzbeeDN-53" value="" style="endArrow=classic;html=1;rounded=0;exitX=1;exitY=0.5;exitDx=0;exitDy=0;exitPerimeter=0;entryX=0;entryY=0.5;entryDx=0;entryDy=0;" parent="1" source="gV-HkSjfAiAgL5ac0c7B-24" target="rXHbmidsyB8I2zzbeeDN-52" edge="1">
          <mxGeometry width="50" height="50" relative="1" as="geometry">
            <mxPoint x="741" y="276.90999999999997" as="sourcePoint" />
            <mxPoint x="856" y="276.90999999999997" as="targetPoint" />
          </mxGeometry>
        </mxCell>
        <mxCell id="rXHbmidsyB8I2zzbeeDN-59" value="" style="endArrow=classic;html=1;rounded=0;exitX=0.5;exitY=1;exitDx=0;exitDy=0;entryX=0.5;entryY=0;entryDx=0;entryDy=0;entryPerimeter=0;exitPerimeter=0;" parent="1" source="gV-HkSjfAiAgL5ac0c7B-23" target="rXHbmidsyB8I2zzbeeDN-60" edge="1">
          <mxGeometry width="50" height="50" relative="1" as="geometry">
            <mxPoint x="684.41" y="315" as="sourcePoint" />
            <mxPoint x="684.41" y="430" as="targetPoint" />
          </mxGeometry>
        </mxCell>
        <mxCell id="rXHbmidsyB8I2zzbeeDN-60" value="IF&amp;nbsp;&lt;div&gt;pilih==3&lt;/div&gt;" style="strokeWidth=2;html=1;shape=mxgraph.flowchart.decision;whiteSpace=wrap;" parent="1" vertex="1">
          <mxGeometry x="629" y="440" width="112" height="105" as="geometry" />
        </mxCell>
        <mxCell id="rXHbmidsyB8I2zzbeeDN-61" value="" style="endArrow=classic;html=1;rounded=0;exitX=1;exitY=0.5;exitDx=0;exitDy=0;exitPerimeter=0;entryX=0;entryY=0.5;entryDx=0;entryDy=0;" parent="1" source="rXHbmidsyB8I2zzbeeDN-60" target="rXHbmidsyB8I2zzbeeDN-62" edge="1">
          <mxGeometry width="50" height="50" relative="1" as="geometry">
            <mxPoint x="751" y="491.90999999999997" as="sourcePoint" />
            <mxPoint x="830" y="492" as="targetPoint" />
          </mxGeometry>
        </mxCell>
        <mxCell id="NfpK6JRWBrip7_dLDp5m-1" style="edgeStyle=orthogonalEdgeStyle;rounded=0;orthogonalLoop=1;jettySize=auto;html=1;exitX=1;exitY=0.75;exitDx=0;exitDy=0;entryX=1;entryY=0.5;entryDx=0;entryDy=0;" edge="1" parent="1" source="rXHbmidsyB8I2zzbeeDN-62" target="rXHbmidsyB8I2zzbeeDN-8">
          <mxGeometry relative="1" as="geometry">
            <Array as="points">
              <mxPoint x="1420" y="506" />
              <mxPoint x="1420" y="-945" />
            </Array>
          </mxGeometry>
        </mxCell>
        <mxCell id="rXHbmidsyB8I2zzbeeDN-62" value="keluar sistem" style="whiteSpace=wrap;html=1;align=center;" parent="1" vertex="1">
          <mxGeometry x="850" y="465" width="150" height="55" as="geometry" />
        </mxCell>
        <mxCell id="rXHbmidsyB8I2zzbeeDN-65" value="IF&amp;nbsp;&lt;div&gt;pilih==1&lt;/div&gt;" style="strokeWidth=2;html=1;shape=mxgraph.flowchart.decision;whiteSpace=wrap;" parent="1" vertex="1">
          <mxGeometry x="377.5" y="210" width="112" height="105" as="geometry" />
        </mxCell>
        <mxCell id="rXHbmidsyB8I2zzbeeDN-66" value="" style="endArrow=classic;html=1;rounded=0;entryX=0.5;entryY=0;entryDx=0;entryDy=0;entryPerimeter=0;exitX=0.5;exitY=1;exitDx=0;exitDy=0;" parent="1" source="rXHbmidsyB8I2zzbeeDN-38" target="rXHbmidsyB8I2zzbeeDN-65" edge="1">
          <mxGeometry width="50" height="50" relative="1" as="geometry">
            <mxPoint x="430" y="70" as="sourcePoint" />
            <mxPoint x="443" y="15" as="targetPoint" />
          </mxGeometry>
        </mxCell>
        <mxCell id="rXHbmidsyB8I2zzbeeDN-68" value="" style="endArrow=classic;html=1;rounded=0;entryX=0.5;entryY=0;entryDx=0;entryDy=0;entryPerimeter=0;exitX=0.5;exitY=1;exitDx=0;exitDy=0;exitPerimeter=0;" parent="1" source="NfpK6JRWBrip7_dLDp5m-23" target="rXHbmidsyB8I2zzbeeDN-69" edge="1">
          <mxGeometry width="50" height="50" relative="1" as="geometry">
            <mxPoint x="375" y="315" as="sourcePoint" />
            <mxPoint x="375" y="445" as="targetPoint" />
          </mxGeometry>
        </mxCell>
        <mxCell id="rXHbmidsyB8I2zzbeeDN-69" value="IF&amp;nbsp;&lt;div&gt;pilih==2&lt;/div&gt;" style="strokeWidth=2;html=1;shape=mxgraph.flowchart.decision;whiteSpace=wrap;" parent="1" vertex="1">
          <mxGeometry x="380" y="440" width="112" height="105" as="geometry" />
        </mxCell>
        <mxCell id="rXHbmidsyB8I2zzbeeDN-70" value="IF&amp;nbsp;&lt;div&gt;pilih==3&lt;/div&gt;" style="strokeWidth=2;html=1;shape=mxgraph.flowchart.decision;whiteSpace=wrap;" parent="1" vertex="1">
          <mxGeometry x="377.5" y="650" width="112" height="105" as="geometry" />
        </mxCell>
        <mxCell id="rXHbmidsyB8I2zzbeeDN-71" value="" style="endArrow=classic;html=1;rounded=0;exitX=0.5;exitY=1;exitDx=0;exitDy=0;exitPerimeter=0;" parent="1" source="NfpK6JRWBrip7_dLDp5m-29" target="rXHbmidsyB8I2zzbeeDN-70" edge="1">
          <mxGeometry width="50" height="50" relative="1" as="geometry">
            <mxPoint x="490" y="540" as="sourcePoint" />
            <mxPoint x="492" y="665" as="targetPoint" />
          </mxGeometry>
        </mxCell>
        <mxCell id="rXHbmidsyB8I2zzbeeDN-72" value="" style="endArrow=classic;html=1;rounded=0;exitX=1;exitY=0.5;exitDx=0;exitDy=0;entryX=1;entryY=0.75;entryDx=0;entryDy=0;" parent="1" source="rXHbmidsyB8I2zzbeeDN-48" target="rXHbmidsyB8I2zzbeeDN-30" edge="1">
          <mxGeometry width="50" height="50" relative="1" as="geometry">
            <mxPoint x="930" y="-110" as="sourcePoint" />
            <mxPoint x="820" y="-190" as="targetPoint" />
            <Array as="points">
              <mxPoint x="1120" y="44" />
              <mxPoint x="1120" y="-304" />
            </Array>
          </mxGeometry>
        </mxCell>
        <mxCell id="rXHbmidsyB8I2zzbeeDN-73" value="" style="endArrow=classic;html=1;rounded=0;entryX=1;entryY=0.25;entryDx=0;entryDy=0;exitX=1;exitY=0.5;exitDx=0;exitDy=0;" parent="1" source="rXHbmidsyB8I2zzbeeDN-52" target="rXHbmidsyB8I2zzbeeDN-30" edge="1">
          <mxGeometry width="50" height="50" relative="1" as="geometry">
            <mxPoint x="1120" y="240" as="sourcePoint" />
            <mxPoint x="770" y="-307" as="targetPoint" />
            <Array as="points">
              <mxPoint x="1210" y="260" />
              <mxPoint x="1210" y="54" />
              <mxPoint x="1210" y="-331" />
            </Array>
          </mxGeometry>
        </mxCell>
        <mxCell id="rXHbmidsyB8I2zzbeeDN-98" style="edgeStyle=orthogonalEdgeStyle;rounded=0;orthogonalLoop=1;jettySize=auto;html=1;exitX=0;exitY=0.5;exitDx=0;exitDy=0;entryX=0;entryY=0.75;entryDx=0;entryDy=0;" parent="1" target="rXHbmidsyB8I2zzbeeDN-8" edge="1">
          <mxGeometry relative="1" as="geometry">
            <Array as="points">
              <mxPoint x="-440" y="492" />
              <mxPoint x="-440" y="-927" />
            </Array>
            <mxPoint x="90" y="492.5" as="sourcePoint" />
          </mxGeometry>
        </mxCell>
        <mxCell id="rXHbmidsyB8I2zzbeeDN-99" style="edgeStyle=orthogonalEdgeStyle;rounded=0;orthogonalLoop=1;jettySize=auto;html=1;exitX=0;exitY=0.5;exitDx=0;exitDy=0;entryX=0;entryY=1;entryDx=0;entryDy=0;" parent="1" source="rXHbmidsyB8I2zzbeeDN-74" target="rXHbmidsyB8I2zzbeeDN-8" edge="1">
          <mxGeometry relative="1" as="geometry">
            <mxPoint x="370" y="-620" as="targetPoint" />
            <Array as="points">
              <mxPoint x="-300" y="264" />
              <mxPoint x="-300" y="-910" />
            </Array>
          </mxGeometry>
        </mxCell>
        <mxCell id="rXHbmidsyB8I2zzbeeDN-74" value="input&lt;br style=&quot;border-color: var(--border-color);&quot;&gt;1. klub&lt;br style=&quot;border-color: var(--border-color);&quot;&gt;2.value market&lt;br style=&quot;border-color: var(--border-color);&quot;&gt;3.daerah&lt;br style=&quot;border-color: var(--border-color);&quot;&gt;4.pemilik" style="shape=parallelogram;html=1;strokeWidth=2;perimeter=parallelogramPerimeter;whiteSpace=wrap;rounded=1;arcSize=12;size=0.23;align=center;" parent="1" vertex="1">
          <mxGeometry x="50" y="210" width="220" height="107.5" as="geometry" />
        </mxCell>
        <mxCell id="rXHbmidsyB8I2zzbeeDN-75" value="" style="endArrow=classic;html=1;rounded=0;exitX=0;exitY=0.5;exitDx=0;exitDy=0;exitPerimeter=0;entryX=1;entryY=0.5;entryDx=0;entryDy=0;" parent="1" source="NfpK6JRWBrip7_dLDp5m-25" target="rXHbmidsyB8I2zzbeeDN-74" edge="1">
          <mxGeometry width="50" height="50" relative="1" as="geometry">
            <mxPoint x="265" y="290" as="sourcePoint" />
            <mxPoint x="380" y="290" as="targetPoint" />
          </mxGeometry>
        </mxCell>
        <mxCell id="rXHbmidsyB8I2zzbeeDN-77" value="" style="endArrow=classic;html=1;rounded=0;exitX=0;exitY=0.5;exitDx=0;exitDy=0;exitPerimeter=0;entryX=1;entryY=0.5;entryDx=0;entryDy=0;" parent="1" source="NfpK6JRWBrip7_dLDp5m-27" edge="1">
          <mxGeometry width="50" height="50" relative="1" as="geometry">
            <mxPoint x="388" y="450" as="sourcePoint" />
            <mxPoint x="240" y="492.5" as="targetPoint" />
          </mxGeometry>
        </mxCell>
        <mxCell id="gV-HkSjfAiAgL5ac0c7B-19" style="edgeStyle=orthogonalEdgeStyle;rounded=0;orthogonalLoop=1;jettySize=auto;html=1;exitX=0;exitY=0.5;exitDx=0;exitDy=0;entryX=1;entryY=0.5;entryDx=0;entryDy=0;" parent="1" source="rXHbmidsyB8I2zzbeeDN-78" target="gV-HkSjfAiAgL5ac0c7B-2" edge="1">
          <mxGeometry relative="1" as="geometry" />
        </mxCell>
        <mxCell id="rXHbmidsyB8I2zzbeeDN-78" value="pilih klub" style="whiteSpace=wrap;html=1;align=center;" parent="1" vertex="1">
          <mxGeometry x="130" y="680" width="110" height="40" as="geometry" />
        </mxCell>
        <mxCell id="rXHbmidsyB8I2zzbeeDN-79" value="" style="endArrow=classic;html=1;rounded=0;exitX=0;exitY=0.5;exitDx=0;exitDy=0;exitPerimeter=0;entryX=1;entryY=0.5;entryDx=0;entryDy=0;" parent="1" source="NfpK6JRWBrip7_dLDp5m-31" target="rXHbmidsyB8I2zzbeeDN-78" edge="1">
          <mxGeometry width="50" height="50" relative="1" as="geometry">
            <mxPoint x="390" y="503" as="sourcePoint" />
            <mxPoint x="250" y="503" as="targetPoint" />
          </mxGeometry>
        </mxCell>
        <mxCell id="rXHbmidsyB8I2zzbeeDN-97" style="edgeStyle=orthogonalEdgeStyle;rounded=0;orthogonalLoop=1;jettySize=auto;html=1;exitX=0;exitY=0.5;exitDx=0;exitDy=0;entryX=0;entryY=0.5;entryDx=0;entryDy=0;startArrow=none;" parent="1" source="gV-HkSjfAiAgL5ac0c7B-2" target="rXHbmidsyB8I2zzbeeDN-8" edge="1">
          <mxGeometry relative="1" as="geometry">
            <Array as="points">
              <mxPoint x="-155" y="704" />
              <mxPoint x="-490" y="704" />
              <mxPoint x="-490" y="-945" />
            </Array>
          </mxGeometry>
        </mxCell>
        <mxCell id="rXHbmidsyB8I2zzbeeDN-87" style="edgeStyle=orthogonalEdgeStyle;rounded=0;orthogonalLoop=1;jettySize=auto;html=1;exitX=0;exitY=0.5;exitDx=0;exitDy=0;exitPerimeter=0;entryX=1;entryY=0.5;entryDx=0;entryDy=0;" parent="1" source="NfpK6JRWBrip7_dLDp5m-35" target="rXHbmidsyB8I2zzbeeDN-88" edge="1">
          <mxGeometry relative="1" as="geometry">
            <mxPoint x="250" y="912.4999999999995" as="targetPoint" />
          </mxGeometry>
        </mxCell>
        <mxCell id="rXHbmidsyB8I2zzbeeDN-83" value="IF&amp;nbsp;&lt;div&gt;pilih==4&lt;/div&gt;" style="strokeWidth=2;html=1;shape=mxgraph.flowchart.decision;whiteSpace=wrap;" parent="1" vertex="1">
          <mxGeometry x="380" y="860" width="112" height="105" as="geometry" />
        </mxCell>
        <mxCell id="rXHbmidsyB8I2zzbeeDN-84" style="edgeStyle=orthogonalEdgeStyle;rounded=0;orthogonalLoop=1;jettySize=auto;html=1;exitX=0.5;exitY=1;exitDx=0;exitDy=0;exitPerimeter=0;entryX=0.484;entryY=0.933;entryDx=0;entryDy=0;entryPerimeter=0;" parent="1" source="rXHbmidsyB8I2zzbeeDN-70" target="rXHbmidsyB8I2zzbeeDN-70" edge="1">
          <mxGeometry relative="1" as="geometry" />
        </mxCell>
        <mxCell id="rXHbmidsyB8I2zzbeeDN-85" value="" style="endArrow=classic;html=1;rounded=0;exitX=0.5;exitY=1;exitDx=0;exitDy=0;exitPerimeter=0;entryX=0.5;entryY=0;entryDx=0;entryDy=0;entryPerimeter=0;" parent="1" source="NfpK6JRWBrip7_dLDp5m-33" target="rXHbmidsyB8I2zzbeeDN-83" edge="1">
          <mxGeometry width="50" height="50" relative="1" as="geometry">
            <mxPoint x="40" y="830" as="sourcePoint" />
            <mxPoint x="90" y="780" as="targetPoint" />
          </mxGeometry>
        </mxCell>
        <mxCell id="rXHbmidsyB8I2zzbeeDN-94" style="edgeStyle=orthogonalEdgeStyle;rounded=0;orthogonalLoop=1;jettySize=auto;html=1;exitX=0;exitY=0.5;exitDx=0;exitDy=0;entryX=0;entryY=0.25;entryDx=0;entryDy=0;" parent="1" source="rXHbmidsyB8I2zzbeeDN-88" target="rXHbmidsyB8I2zzbeeDN-8" edge="1">
          <mxGeometry relative="1" as="geometry">
            <Array as="points">
              <mxPoint x="-610" y="912" />
              <mxPoint x="-610" y="-962" />
            </Array>
          </mxGeometry>
        </mxCell>
        <mxCell id="rXHbmidsyB8I2zzbeeDN-88" value="hapus&amp;nbsp; klub" style="whiteSpace=wrap;html=1;align=center;" parent="1" vertex="1">
          <mxGeometry x="130" y="892.5" width="110" height="40" as="geometry" />
        </mxCell>
        <mxCell id="rXHbmidsyB8I2zzbeeDN-89" value="IF&amp;nbsp;&lt;div&gt;pilih==5&lt;/div&gt;" style="strokeWidth=2;html=1;shape=mxgraph.flowchart.decision;whiteSpace=wrap;" parent="1" vertex="1">
          <mxGeometry x="378" y="1070" width="112" height="105" as="geometry" />
        </mxCell>
        <mxCell id="rXHbmidsyB8I2zzbeeDN-90" value="" style="endArrow=classic;html=1;rounded=0;exitX=0.5;exitY=1;exitDx=0;exitDy=0;exitPerimeter=0;" parent="1" source="NfpK6JRWBrip7_dLDp5m-37" target="rXHbmidsyB8I2zzbeeDN-89" edge="1">
          <mxGeometry width="50" height="50" relative="1" as="geometry">
            <mxPoint x="444" y="765" as="sourcePoint" />
            <mxPoint x="446" y="870" as="targetPoint" />
          </mxGeometry>
        </mxCell>
        <mxCell id="rXHbmidsyB8I2zzbeeDN-93" style="edgeStyle=orthogonalEdgeStyle;rounded=0;orthogonalLoop=1;jettySize=auto;html=1;exitX=0;exitY=0.5;exitDx=0;exitDy=0;entryX=0;entryY=0;entryDx=0;entryDy=0;" parent="1" source="rXHbmidsyB8I2zzbeeDN-91" target="rXHbmidsyB8I2zzbeeDN-8" edge="1">
          <mxGeometry relative="1" as="geometry">
            <mxPoint x="380" y="-670" as="targetPoint" />
            <Array as="points">
              <mxPoint x="-700" y="1122" />
              <mxPoint x="-700" y="-980" />
            </Array>
          </mxGeometry>
        </mxCell>
        <mxCell id="rXHbmidsyB8I2zzbeeDN-91" value="keluar sistem" style="whiteSpace=wrap;html=1;align=center;" parent="1" vertex="1">
          <mxGeometry x="100" y="1095" width="150" height="55" as="geometry" />
        </mxCell>
        <mxCell id="rXHbmidsyB8I2zzbeeDN-92" style="edgeStyle=orthogonalEdgeStyle;rounded=0;orthogonalLoop=1;jettySize=auto;html=1;exitX=0;exitY=0.5;exitDx=0;exitDy=0;exitPerimeter=0;entryX=1;entryY=0.5;entryDx=0;entryDy=0;" parent="1" source="NfpK6JRWBrip7_dLDp5m-39" target="rXHbmidsyB8I2zzbeeDN-91" edge="1">
          <mxGeometry relative="1" as="geometry">
            <mxPoint x="390" y="923" as="sourcePoint" />
            <mxPoint x="250" y="923" as="targetPoint" />
          </mxGeometry>
        </mxCell>
        <mxCell id="NfpK6JRWBrip7_dLDp5m-10" style="edgeStyle=orthogonalEdgeStyle;rounded=0;orthogonalLoop=1;jettySize=auto;html=1;exitX=0.5;exitY=1;exitDx=0;exitDy=0;exitPerimeter=0;" edge="1" parent="1" source="gV-HkSjfAiAgL5ac0c7B-20" target="rXHbmidsyB8I2zzbeeDN-107">
          <mxGeometry relative="1" as="geometry">
            <Array as="points">
              <mxPoint x="434" y="-1100" />
            </Array>
          </mxGeometry>
        </mxCell>
        <mxCell id="rXHbmidsyB8I2zzbeeDN-100" value="pilih==1" style="strokeWidth=2;html=1;shape=mxgraph.flowchart.decision;whiteSpace=wrap;" parent="1" vertex="1">
          <mxGeometry x="376.5" y="-1470" width="115" height="110" as="geometry" />
        </mxCell>
        <mxCell id="rXHbmidsyB8I2zzbeeDN-102" style="edgeStyle=orthogonalEdgeStyle;rounded=0;orthogonalLoop=1;jettySize=auto;html=1;exitX=0;exitY=0.5;exitDx=0;exitDy=0;exitPerimeter=0;entryX=1;entryY=0.5;entryDx=0;entryDy=0;entryPerimeter=0;" parent="1" source="rXHbmidsyB8I2zzbeeDN-17" target="rXHbmidsyB8I2zzbeeDN-11" edge="1">
          <mxGeometry relative="1" as="geometry" />
        </mxCell>
        <mxCell id="rXHbmidsyB8I2zzbeeDN-111" style="edgeStyle=orthogonalEdgeStyle;rounded=0;orthogonalLoop=1;jettySize=auto;html=1;exitX=1;exitY=0.5;exitDx=0;exitDy=0;exitPerimeter=0;entryX=0;entryY=0.5;entryDx=0;entryDy=0;entryPerimeter=0;" parent="1" source="gV-HkSjfAiAgL5ac0c7B-22" target="rXHbmidsyB8I2zzbeeDN-110" edge="1">
          <mxGeometry relative="1" as="geometry">
            <mxPoint x="1370" y="-830" as="targetPoint" />
            <Array as="points">
              <mxPoint x="1220" y="-1155" />
            </Array>
          </mxGeometry>
        </mxCell>
        <mxCell id="rXHbmidsyB8I2zzbeeDN-107" value="pilih==2" style="strokeWidth=2;html=1;shape=mxgraph.flowchart.decision;whiteSpace=wrap;" parent="1" vertex="1">
          <mxGeometry x="374" y="-1210" width="120" height="110" as="geometry" />
        </mxCell>
        <mxCell id="K6sueLuP1Ap1bfe6iMac-3" style="edgeStyle=orthogonalEdgeStyle;rounded=0;orthogonalLoop=1;jettySize=auto;html=1;exitX=0.5;exitY=1;exitDx=0;exitDy=0;exitPerimeter=0;entryX=1;entryY=0.5;entryDx=0;entryDy=0;entryPerimeter=0;" parent="1" source="rXHbmidsyB8I2zzbeeDN-110" target="rXHbmidsyB8I2zzbeeDN-112" edge="1">
          <mxGeometry relative="1" as="geometry">
            <mxPoint x="1680" y="1340" as="targetPoint" />
          </mxGeometry>
        </mxCell>
        <mxCell id="rXHbmidsyB8I2zzbeeDN-110" value="pilih==3" style="strokeWidth=2;html=1;shape=mxgraph.flowchart.decision;whiteSpace=wrap;" parent="1" vertex="1">
          <mxGeometry x="1820" y="-1210" width="120" height="110" as="geometry" />
        </mxCell>
        <mxCell id="rXHbmidsyB8I2zzbeeDN-112" value="END" style="strokeWidth=2;html=1;shape=mxgraph.flowchart.terminator;whiteSpace=wrap;fontFamily=Times New Roman;" parent="1" vertex="1">
          <mxGeometry x="382.5" y="1390" width="110" height="50" as="geometry" />
        </mxCell>
        <mxCell id="gV-HkSjfAiAgL5ac0c7B-3" value="output&lt;br style=&quot;border-color: var(--border-color);&quot;&gt;1. klub&lt;br style=&quot;border-color: var(--border-color);&quot;&gt;2.value market&lt;br style=&quot;border-color: var(--border-color);&quot;&gt;3.daerah&lt;br style=&quot;border-color: var(--border-color);&quot;&gt;4.pemilik" style="shape=parallelogram;html=1;strokeWidth=2;perimeter=parallelogramPerimeter;whiteSpace=wrap;rounded=1;arcSize=12;size=0.23;align=center;" parent="1" vertex="1">
          <mxGeometry x="-400" y="-170" width="220" height="107.5" as="geometry" />
        </mxCell>
        <mxCell id="gV-HkSjfAiAgL5ac0c7B-4" value="output&lt;br style=&quot;border-color: var(--border-color);&quot;&gt;1. klub&lt;br style=&quot;border-color: var(--border-color);&quot;&gt;2.value market&lt;br style=&quot;border-color: var(--border-color);&quot;&gt;3.daerah&lt;br style=&quot;border-color: var(--border-color);&quot;&gt;4.pemilik" style="shape=parallelogram;html=1;strokeWidth=2;perimeter=parallelogramPerimeter;whiteSpace=wrap;rounded=1;arcSize=12;size=0.23;align=center;" parent="1" vertex="1">
          <mxGeometry x="970" y="-170" width="220" height="107.5" as="geometry" />
        </mxCell>
        <mxCell id="gV-HkSjfAiAgL5ac0c7B-5" value="" style="endArrow=classic;html=1;rounded=0;" parent="1" edge="1">
          <mxGeometry width="50" height="50" relative="1" as="geometry">
            <mxPoint x="820" y="5" as="sourcePoint" />
            <mxPoint x="910" y="5" as="targetPoint" />
          </mxGeometry>
        </mxCell>
        <mxCell id="gV-HkSjfAiAgL5ac0c7B-6" value="" style="endArrow=classic;html=1;rounded=0;" parent="1" edge="1">
          <mxGeometry width="50" height="50" relative="1" as="geometry">
            <mxPoint x="1090" y="-70" as="sourcePoint" />
            <mxPoint x="1200" y="-70" as="targetPoint" />
          </mxGeometry>
        </mxCell>
        <mxCell id="gV-HkSjfAiAgL5ac0c7B-10" value="" style="endArrow=classic;html=1;rounded=0;" parent="1" edge="1">
          <mxGeometry width="50" height="50" relative="1" as="geometry">
            <mxPoint x="60" y="220" as="sourcePoint" />
            <mxPoint x="140" y="220" as="targetPoint" />
          </mxGeometry>
        </mxCell>
        <mxCell id="gV-HkSjfAiAgL5ac0c7B-11" value="" style="endArrow=classic;html=1;rounded=0;" parent="1" edge="1">
          <mxGeometry width="50" height="50" relative="1" as="geometry">
            <mxPoint x="-250" y="-70" as="sourcePoint" />
            <mxPoint x="-150" y="-70" as="targetPoint" />
          </mxGeometry>
        </mxCell>
        <mxCell id="gV-HkSjfAiAgL5ac0c7B-14" value="output&lt;br style=&quot;border-color: var(--border-color);&quot;&gt;1. klub_baru&lt;br style=&quot;border-color: var(--border-color);&quot;&gt;2.value market_baru&lt;br style=&quot;border-color: var(--border-color);&quot;&gt;3.daerah_baru&lt;br style=&quot;border-color: var(--border-color);&quot;&gt;4.pemilik_baru" style="shape=parallelogram;html=1;strokeWidth=2;perimeter=parallelogramPerimeter;whiteSpace=wrap;rounded=1;arcSize=12;size=0.23;align=center;" parent="1" vertex="1">
          <mxGeometry x="-600" y="515" width="220" height="107.5" as="geometry" />
        </mxCell>
        <mxCell id="gV-HkSjfAiAgL5ac0c7B-15" value="" style="endArrow=classic;html=1;rounded=0;" parent="1" edge="1">
          <mxGeometry width="50" height="50" relative="1" as="geometry">
            <mxPoint x="-420" y="610" as="sourcePoint" />
            <mxPoint x="-330" y="610" as="targetPoint" />
            <Array as="points">
              <mxPoint x="-450" y="610" />
            </Array>
          </mxGeometry>
        </mxCell>
        <mxCell id="gV-HkSjfAiAgL5ac0c7B-2" value="input&lt;div style=&quot;&quot;&gt;1.klub_baru&lt;/div&gt;&lt;div style=&quot;&quot;&gt;2.value_market_baru&lt;/div&gt;&lt;div style=&quot;&quot;&gt;3.daerah_baru&lt;/div&gt;&lt;div style=&quot;&quot;&gt;4.pemilik _baru&lt;/div&gt;" style="shape=parallelogram;html=1;strokeWidth=2;perimeter=parallelogramPerimeter;whiteSpace=wrap;rounded=1;arcSize=12;size=0.23;align=center;" parent="1" vertex="1">
          <mxGeometry x="-180" y="646.25" width="220" height="107.5" as="geometry" />
        </mxCell>
        <mxCell id="gV-HkSjfAiAgL5ac0c7B-17" value="&lt;span style=&quot;text-align: center;&quot;&gt;1. klub&lt;/span&gt;&lt;br style=&quot;border-color: var(--border-color); text-align: center;&quot;&gt;&lt;span style=&quot;text-align: center;&quot;&gt;2.value market&lt;/span&gt;&lt;br style=&quot;border-color: var(--border-color); text-align: center;&quot;&gt;&lt;span style=&quot;text-align: center;&quot;&gt;3.daerah&lt;/span&gt;&lt;br style=&quot;border-color: var(--border-color); text-align: center;&quot;&gt;&lt;span style=&quot;text-align: center;&quot;&gt;4.pemilik&lt;/span&gt;" style="whiteSpace=wrap;html=1;align=left;" parent="1" vertex="1">
          <mxGeometry x="90" y="460" width="150" height="55" as="geometry" />
        </mxCell>
        <mxCell id="4TKAlUQMHLMQeYQkOLo5-5" value="" style="endArrow=classic;html=1;rounded=0;" parent="1" edge="1">
          <mxGeometry width="50" height="50" relative="1" as="geometry">
            <mxPoint x="-190" y="670" as="sourcePoint" />
            <mxPoint x="-100" y="670" as="targetPoint" />
            <Array as="points" />
          </mxGeometry>
        </mxCell>
        <mxCell id="NfpK6JRWBrip7_dLDp5m-6" value="" style="endArrow=classic;html=1;rounded=0;exitX=0;exitY=0.5;exitDx=0;exitDy=0;exitPerimeter=0;entryX=1;entryY=0.5;entryDx=0;entryDy=0;" edge="1" parent="1" source="rXHbmidsyB8I2zzbeeDN-11" target="rXHbmidsyB8I2zzbeeDN-18">
          <mxGeometry width="50" height="50" relative="1" as="geometry">
            <mxPoint x="38" y="-1425" as="sourcePoint" />
            <mxPoint x="-190" y="-1425" as="targetPoint" />
          </mxGeometry>
        </mxCell>
        <mxCell id="rXHbmidsyB8I2zzbeeDN-18" value="TIDAK" style="text;html=1;align=center;verticalAlign=middle;resizable=0;points=[];autosize=1;strokeColor=none;fillColor=none;" parent="1" vertex="1">
          <mxGeometry x="-140" y="-1440" width="60" height="30" as="geometry" />
        </mxCell>
        <mxCell id="NfpK6JRWBrip7_dLDp5m-7" value="" style="edgeStyle=orthogonalEdgeStyle;rounded=0;orthogonalLoop=1;jettySize=auto;html=1;exitX=0;exitY=0.5;exitDx=0;exitDy=0;exitPerimeter=0;entryX=1;entryY=0.5;entryDx=0;entryDy=0;entryPerimeter=0;" edge="1" parent="1" source="rXHbmidsyB8I2zzbeeDN-100" target="rXHbmidsyB8I2zzbeeDN-17">
          <mxGeometry relative="1" as="geometry">
            <mxPoint x="380" y="-1425" as="sourcePoint" />
            <mxPoint x="153" y="-1425" as="targetPoint" />
          </mxGeometry>
        </mxCell>
        <mxCell id="rXHbmidsyB8I2zzbeeDN-17" value="YA" style="text;html=1;align=center;verticalAlign=middle;resizable=0;points=[];autosize=1;strokeColor=none;fillColor=none;" parent="1" vertex="1">
          <mxGeometry x="250" y="-1440" width="40" height="30" as="geometry" />
        </mxCell>
        <mxCell id="NfpK6JRWBrip7_dLDp5m-9" style="edgeStyle=orthogonalEdgeStyle;rounded=0;orthogonalLoop=1;jettySize=auto;html=1;exitX=0.5;exitY=1;exitDx=0;exitDy=0;entryX=0.5;entryY=0;entryDx=0;entryDy=0;entryPerimeter=0;" edge="1" parent="1" source="rXHbmidsyB8I2zzbeeDN-6" target="rXHbmidsyB8I2zzbeeDN-100">
          <mxGeometry relative="1" as="geometry" />
        </mxCell>
        <mxCell id="NfpK6JRWBrip7_dLDp5m-12" value="" style="edgeStyle=orthogonalEdgeStyle;rounded=0;orthogonalLoop=1;jettySize=auto;html=1;exitX=0.5;exitY=1;exitDx=0;exitDy=0;exitPerimeter=0;entryX=0.5;entryY=0;entryDx=0;entryDy=0;" edge="1" parent="1" source="rXHbmidsyB8I2zzbeeDN-107" target="rXHbmidsyB8I2zzbeeDN-8">
          <mxGeometry relative="1" as="geometry">
            <mxPoint x="436" y="-940" as="sourcePoint" />
            <mxPoint x="432.5" y="-870" as="targetPoint" />
          </mxGeometry>
        </mxCell>
        <mxCell id="NfpK6JRWBrip7_dLDp5m-13" value="" style="edgeStyle=orthogonalEdgeStyle;rounded=0;orthogonalLoop=1;jettySize=auto;html=1;exitX=1;exitY=0.5;exitDx=0;exitDy=0;exitPerimeter=0;entryX=0;entryY=0.5;entryDx=0;entryDy=0;entryPerimeter=0;" edge="1" parent="1" source="rXHbmidsyB8I2zzbeeDN-107" target="gV-HkSjfAiAgL5ac0c7B-22">
          <mxGeometry relative="1" as="geometry">
            <mxPoint x="1830" y="-995" as="targetPoint" />
            <mxPoint x="496" y="-995" as="sourcePoint" />
            <Array as="points">
              <mxPoint x="1160" y="-1155" />
            </Array>
          </mxGeometry>
        </mxCell>
        <mxCell id="gV-HkSjfAiAgL5ac0c7B-22" value="TIDAK" style="text;html=1;align=center;verticalAlign=middle;resizable=0;points=[];autosize=1;strokeColor=none;fillColor=none;" parent="1" vertex="1">
          <mxGeometry x="1160" y="-1170" width="60" height="30" as="geometry" />
        </mxCell>
        <mxCell id="NfpK6JRWBrip7_dLDp5m-15" value="" style="endArrow=classic;html=1;rounded=0;entryX=1;entryY=0.5;entryDx=0;entryDy=0;exitX=0;exitY=0.5;exitDx=0;exitDy=0;exitPerimeter=0;" edge="1" parent="1" source="rXHbmidsyB8I2zzbeeDN-23" target="rXHbmidsyB8I2zzbeeDN-21">
          <mxGeometry width="50" height="50" relative="1" as="geometry">
            <mxPoint x="377" y="-497" as="sourcePoint" />
            <mxPoint x="170" y="-497" as="targetPoint" />
          </mxGeometry>
        </mxCell>
        <mxCell id="rXHbmidsyB8I2zzbeeDN-21" value="TIDAK" style="text;html=1;align=center;verticalAlign=middle;resizable=0;points=[];autosize=1;strokeColor=none;fillColor=none;" parent="1" vertex="1">
          <mxGeometry x="290" y="-512.5" width="60" height="30" as="geometry" />
        </mxCell>
        <mxCell id="NfpK6JRWBrip7_dLDp5m-16" value="" style="endArrow=classic;html=1;rounded=0;exitX=0.5;exitY=1;exitDx=0;exitDy=0;exitPerimeter=0;entryX=0.5;entryY=0;entryDx=0;entryDy=0;entryPerimeter=0;" edge="1" parent="1" source="rXHbmidsyB8I2zzbeeDN-23" target="rXHbmidsyB8I2zzbeeDN-25">
          <mxGeometry width="50" height="50" relative="1" as="geometry">
            <mxPoint x="433" y="-445" as="sourcePoint" />
            <mxPoint x="433" y="-370" as="targetPoint" />
          </mxGeometry>
        </mxCell>
        <mxCell id="rXHbmidsyB8I2zzbeeDN-25" value="YA" style="text;html=1;align=center;verticalAlign=middle;resizable=0;points=[];autosize=1;strokeColor=none;fillColor=none;" parent="1" vertex="1">
          <mxGeometry x="412.5" y="-420" width="40" height="30" as="geometry" />
        </mxCell>
        <mxCell id="NfpK6JRWBrip7_dLDp5m-17" value="" style="endArrow=classic;html=1;rounded=0;exitX=1;exitY=0.5;exitDx=0;exitDy=0;exitPerimeter=0;entryX=0;entryY=0.5;entryDx=0;entryDy=0;" edge="1" parent="1" source="rXHbmidsyB8I2zzbeeDN-28" target="rXHbmidsyB8I2zzbeeDN-36">
          <mxGeometry width="50" height="50" relative="1" as="geometry">
            <mxPoint x="489" y="-317" as="sourcePoint" />
            <mxPoint x="610" y="-317" as="targetPoint" />
          </mxGeometry>
        </mxCell>
        <mxCell id="rXHbmidsyB8I2zzbeeDN-36" value="TIDAK" style="text;html=1;align=center;verticalAlign=middle;resizable=0;points=[];autosize=1;strokeColor=none;fillColor=none;" parent="1" vertex="1">
          <mxGeometry x="510" y="-332.5" width="60" height="30" as="geometry" />
        </mxCell>
        <mxCell id="NfpK6JRWBrip7_dLDp5m-18" value="" style="endArrow=classic;html=1;rounded=0;exitX=0.5;exitY=1;exitDx=0;exitDy=0;exitPerimeter=0;entryX=0.5;entryY=0;entryDx=0;entryDy=0;" edge="1" parent="1" source="rXHbmidsyB8I2zzbeeDN-28" target="rXHbmidsyB8I2zzbeeDN-37">
          <mxGeometry width="50" height="50" relative="1" as="geometry">
            <mxPoint x="433" y="-265" as="sourcePoint" />
            <mxPoint x="433" y="-180" as="targetPoint" />
          </mxGeometry>
        </mxCell>
        <mxCell id="rXHbmidsyB8I2zzbeeDN-37" value="YA" style="text;html=1;align=center;verticalAlign=middle;resizable=0;points=[];autosize=1;strokeColor=none;fillColor=none;" parent="1" vertex="1">
          <mxGeometry x="414" y="-230" width="40" height="30" as="geometry" />
        </mxCell>
        <mxCell id="NfpK6JRWBrip7_dLDp5m-19" value="" style="endArrow=classic;html=1;rounded=0;exitX=1;exitY=0.5;exitDx=0;exitDy=0;exitPerimeter=0;" edge="1" parent="1" source="rXHbmidsyB8I2zzbeeDN-41" target="rXHbmidsyB8I2zzbeeDN-55">
          <mxGeometry width="50" height="50" relative="1" as="geometry">
            <mxPoint x="741" y="43" as="sourcePoint" />
            <mxPoint x="856" y="43" as="targetPoint" />
          </mxGeometry>
        </mxCell>
        <mxCell id="rXHbmidsyB8I2zzbeeDN-55" value="YA" style="text;html=1;align=center;verticalAlign=middle;resizable=0;points=[];autosize=1;strokeColor=none;fillColor=none;" parent="1" vertex="1">
          <mxGeometry x="770" y="28.75" width="40" height="30" as="geometry" />
        </mxCell>
        <mxCell id="NfpK6JRWBrip7_dLDp5m-20" value="" style="endArrow=classic;html=1;rounded=0;exitX=0.5;exitY=1;exitDx=0;exitDy=0;entryX=0.5;entryY=0;entryDx=0;entryDy=0;entryPerimeter=0;" edge="1" parent="1" target="rXHbmidsyB8I2zzbeeDN-56">
          <mxGeometry width="50" height="50" relative="1" as="geometry">
            <mxPoint x="684.41" y="95" as="sourcePoint" />
            <mxPoint x="684.41" y="210" as="targetPoint" />
          </mxGeometry>
        </mxCell>
        <mxCell id="rXHbmidsyB8I2zzbeeDN-56" value="TIDAK" style="text;html=1;align=center;verticalAlign=middle;resizable=0;points=[];autosize=1;strokeColor=none;fillColor=none;" parent="1" vertex="1">
          <mxGeometry x="655" y="150" width="60" height="30" as="geometry" />
        </mxCell>
        <mxCell id="NfpK6JRWBrip7_dLDp5m-21" value="" style="endArrow=classic;html=1;rounded=0;exitX=0.5;exitY=1;exitDx=0;exitDy=0;entryX=0.5;entryY=0;entryDx=0;entryDy=0;entryPerimeter=0;exitPerimeter=0;" edge="1" parent="1" source="rXHbmidsyB8I2zzbeeDN-51" target="gV-HkSjfAiAgL5ac0c7B-23">
          <mxGeometry width="50" height="50" relative="1" as="geometry">
            <mxPoint x="685" y="315" as="sourcePoint" />
            <mxPoint x="685" y="440" as="targetPoint" />
          </mxGeometry>
        </mxCell>
        <mxCell id="gV-HkSjfAiAgL5ac0c7B-23" value="TIDAK" style="text;html=1;align=center;verticalAlign=middle;resizable=0;points=[];autosize=1;strokeColor=none;fillColor=none;" parent="1" vertex="1">
          <mxGeometry x="655" y="370" width="60" height="30" as="geometry" />
        </mxCell>
        <mxCell id="NfpK6JRWBrip7_dLDp5m-22" value="" style="endArrow=classic;html=1;rounded=0;exitX=1;exitY=0.5;exitDx=0;exitDy=0;exitPerimeter=0;entryX=0;entryY=0.5;entryDx=0;entryDy=0;" edge="1" parent="1" source="rXHbmidsyB8I2zzbeeDN-51" target="gV-HkSjfAiAgL5ac0c7B-24">
          <mxGeometry width="50" height="50" relative="1" as="geometry">
            <mxPoint x="741" y="263" as="sourcePoint" />
            <mxPoint x="850" y="263" as="targetPoint" />
          </mxGeometry>
        </mxCell>
        <mxCell id="gV-HkSjfAiAgL5ac0c7B-24" value="YA" style="text;html=1;align=center;verticalAlign=middle;resizable=0;points=[];autosize=1;strokeColor=none;fillColor=none;" parent="1" vertex="1">
          <mxGeometry x="780" y="248.75" width="40" height="30" as="geometry" />
        </mxCell>
        <mxCell id="NfpK6JRWBrip7_dLDp5m-24" value="" style="endArrow=classic;html=1;rounded=0;entryX=0.5;entryY=0;entryDx=0;entryDy=0;entryPerimeter=0;exitX=0.5;exitY=1;exitDx=0;exitDy=0;exitPerimeter=0;" edge="1" parent="1" source="rXHbmidsyB8I2zzbeeDN-65" target="NfpK6JRWBrip7_dLDp5m-23">
          <mxGeometry width="50" height="50" relative="1" as="geometry">
            <mxPoint x="434" y="315" as="sourcePoint" />
            <mxPoint x="436" y="440" as="targetPoint" />
          </mxGeometry>
        </mxCell>
        <mxCell id="NfpK6JRWBrip7_dLDp5m-23" value="TIDAK" style="text;html=1;align=center;verticalAlign=middle;resizable=0;points=[];autosize=1;strokeColor=none;fillColor=none;" vertex="1" parent="1">
          <mxGeometry x="402.5" y="370" width="60" height="30" as="geometry" />
        </mxCell>
        <mxCell id="NfpK6JRWBrip7_dLDp5m-26" value="" style="endArrow=classic;html=1;rounded=0;exitX=0;exitY=0.5;exitDx=0;exitDy=0;exitPerimeter=0;entryX=1;entryY=0.5;entryDx=0;entryDy=0;" edge="1" parent="1" source="rXHbmidsyB8I2zzbeeDN-65" target="NfpK6JRWBrip7_dLDp5m-25">
          <mxGeometry width="50" height="50" relative="1" as="geometry">
            <mxPoint x="378" y="263" as="sourcePoint" />
            <mxPoint x="245" y="264" as="targetPoint" />
          </mxGeometry>
        </mxCell>
        <mxCell id="NfpK6JRWBrip7_dLDp5m-25" value="YA" style="text;html=1;align=center;verticalAlign=middle;resizable=0;points=[];autosize=1;strokeColor=none;fillColor=none;" vertex="1" parent="1">
          <mxGeometry x="300" y="247.5" width="40" height="30" as="geometry" />
        </mxCell>
        <mxCell id="NfpK6JRWBrip7_dLDp5m-28" value="" style="endArrow=classic;html=1;rounded=0;exitX=0;exitY=0.5;exitDx=0;exitDy=0;exitPerimeter=0;entryX=1;entryY=0.5;entryDx=0;entryDy=0;" edge="1" parent="1" source="rXHbmidsyB8I2zzbeeDN-69" target="NfpK6JRWBrip7_dLDp5m-27">
          <mxGeometry width="50" height="50" relative="1" as="geometry">
            <mxPoint x="380" y="493" as="sourcePoint" />
            <mxPoint x="240" y="492.5" as="targetPoint" />
          </mxGeometry>
        </mxCell>
        <mxCell id="NfpK6JRWBrip7_dLDp5m-27" value="YA" style="text;html=1;align=center;verticalAlign=middle;resizable=0;points=[];autosize=1;strokeColor=none;fillColor=none;" vertex="1" parent="1">
          <mxGeometry x="317.5" y="477.5" width="40" height="30" as="geometry" />
        </mxCell>
        <mxCell id="NfpK6JRWBrip7_dLDp5m-30" value="" style="endArrow=classic;html=1;rounded=0;exitX=0.5;exitY=1;exitDx=0;exitDy=0;exitPerimeter=0;" edge="1" parent="1" source="rXHbmidsyB8I2zzbeeDN-69" target="NfpK6JRWBrip7_dLDp5m-29">
          <mxGeometry width="50" height="50" relative="1" as="geometry">
            <mxPoint x="436" y="545" as="sourcePoint" />
            <mxPoint x="434" y="650" as="targetPoint" />
          </mxGeometry>
        </mxCell>
        <mxCell id="NfpK6JRWBrip7_dLDp5m-29" value="TIDAK" style="text;html=1;align=center;verticalAlign=middle;resizable=0;points=[];autosize=1;strokeColor=none;fillColor=none;" vertex="1" parent="1">
          <mxGeometry x="403.75" y="580" width="60" height="30" as="geometry" />
        </mxCell>
        <mxCell id="NfpK6JRWBrip7_dLDp5m-32" value="" style="endArrow=classic;html=1;rounded=0;exitX=0;exitY=0.5;exitDx=0;exitDy=0;exitPerimeter=0;entryX=1;entryY=0.5;entryDx=0;entryDy=0;" edge="1" parent="1" source="rXHbmidsyB8I2zzbeeDN-70" target="NfpK6JRWBrip7_dLDp5m-31">
          <mxGeometry width="50" height="50" relative="1" as="geometry">
            <mxPoint x="378" y="703" as="sourcePoint" />
            <mxPoint x="240" y="700" as="targetPoint" />
          </mxGeometry>
        </mxCell>
        <mxCell id="NfpK6JRWBrip7_dLDp5m-31" value="YA" style="text;html=1;align=center;verticalAlign=middle;resizable=0;points=[];autosize=1;strokeColor=none;fillColor=none;" vertex="1" parent="1">
          <mxGeometry x="300" y="687.5" width="40" height="30" as="geometry" />
        </mxCell>
        <mxCell id="NfpK6JRWBrip7_dLDp5m-34" value="" style="endArrow=classic;html=1;rounded=0;exitX=0.5;exitY=1;exitDx=0;exitDy=0;exitPerimeter=0;entryX=0.5;entryY=0;entryDx=0;entryDy=0;entryPerimeter=0;" edge="1" parent="1" source="rXHbmidsyB8I2zzbeeDN-70" target="NfpK6JRWBrip7_dLDp5m-33">
          <mxGeometry width="50" height="50" relative="1" as="geometry">
            <mxPoint x="434" y="755" as="sourcePoint" />
            <mxPoint x="436" y="860" as="targetPoint" />
          </mxGeometry>
        </mxCell>
        <mxCell id="NfpK6JRWBrip7_dLDp5m-33" value="TIDAK" style="text;html=1;align=center;verticalAlign=middle;resizable=0;points=[];autosize=1;strokeColor=none;fillColor=none;" vertex="1" parent="1">
          <mxGeometry x="405" y="790" width="60" height="30" as="geometry" />
        </mxCell>
        <mxCell id="NfpK6JRWBrip7_dLDp5m-36" value="" style="edgeStyle=orthogonalEdgeStyle;rounded=0;orthogonalLoop=1;jettySize=auto;html=1;exitX=0;exitY=0.5;exitDx=0;exitDy=0;exitPerimeter=0;entryX=1;entryY=0.5;entryDx=0;entryDy=0;" edge="1" parent="1" source="rXHbmidsyB8I2zzbeeDN-83" target="NfpK6JRWBrip7_dLDp5m-35">
          <mxGeometry relative="1" as="geometry">
            <mxPoint x="240" y="913" as="targetPoint" />
            <mxPoint x="380" y="913" as="sourcePoint" />
          </mxGeometry>
        </mxCell>
        <mxCell id="NfpK6JRWBrip7_dLDp5m-35" value="YA" style="text;html=1;align=center;verticalAlign=middle;resizable=0;points=[];autosize=1;strokeColor=none;fillColor=none;" vertex="1" parent="1">
          <mxGeometry x="300" y="897.5" width="40" height="30" as="geometry" />
        </mxCell>
        <mxCell id="NfpK6JRWBrip7_dLDp5m-38" value="" style="endArrow=classic;html=1;rounded=0;exitX=0.5;exitY=1;exitDx=0;exitDy=0;exitPerimeter=0;" edge="1" parent="1" source="rXHbmidsyB8I2zzbeeDN-83" target="NfpK6JRWBrip7_dLDp5m-37">
          <mxGeometry width="50" height="50" relative="1" as="geometry">
            <mxPoint x="436" y="965" as="sourcePoint" />
            <mxPoint x="435" y="1070" as="targetPoint" />
          </mxGeometry>
        </mxCell>
        <mxCell id="NfpK6JRWBrip7_dLDp5m-37" value="TIDAK" style="text;html=1;align=center;verticalAlign=middle;resizable=0;points=[];autosize=1;strokeColor=none;fillColor=none;" vertex="1" parent="1">
          <mxGeometry x="405" y="1000" width="60" height="30" as="geometry" />
        </mxCell>
        <mxCell id="NfpK6JRWBrip7_dLDp5m-40" value="" style="edgeStyle=orthogonalEdgeStyle;rounded=0;orthogonalLoop=1;jettySize=auto;html=1;exitX=0;exitY=0.5;exitDx=0;exitDy=0;exitPerimeter=0;entryX=1;entryY=0.5;entryDx=0;entryDy=0;" edge="1" parent="1" source="rXHbmidsyB8I2zzbeeDN-89" target="NfpK6JRWBrip7_dLDp5m-39">
          <mxGeometry relative="1" as="geometry">
            <mxPoint x="378" y="1123" as="sourcePoint" />
            <mxPoint x="250" y="1123" as="targetPoint" />
          </mxGeometry>
        </mxCell>
        <mxCell id="NfpK6JRWBrip7_dLDp5m-39" value="YA" style="text;html=1;align=center;verticalAlign=middle;resizable=0;points=[];autosize=1;strokeColor=none;fillColor=none;" vertex="1" parent="1">
          <mxGeometry x="290" y="1107.5" width="40" height="30" as="geometry" />
        </mxCell>
        <mxCell id="NfpK6JRWBrip7_dLDp5m-42" style="edgeStyle=orthogonalEdgeStyle;rounded=0;orthogonalLoop=1;jettySize=auto;html=1;exitX=0.5;exitY=1;exitDx=0;exitDy=0;exitPerimeter=0;entryX=0.5;entryY=0;entryDx=0;entryDy=0;entryPerimeter=0;" edge="1" parent="1" source="gV-HkSjfAiAgL5ac0c7B-20" target="rXHbmidsyB8I2zzbeeDN-107">
          <mxGeometry relative="1" as="geometry" />
        </mxCell>
        <mxCell id="NfpK6JRWBrip7_dLDp5m-43" value="" style="edgeStyle=orthogonalEdgeStyle;rounded=0;orthogonalLoop=1;jettySize=auto;html=1;exitX=0.5;exitY=1;exitDx=0;exitDy=0;exitPerimeter=0;entryX=0.5;entryY=0;entryDx=0;entryDy=0;entryPerimeter=0;" edge="1" parent="1" source="rXHbmidsyB8I2zzbeeDN-100" target="gV-HkSjfAiAgL5ac0c7B-20">
          <mxGeometry relative="1" as="geometry">
            <mxPoint x="434" y="-1360" as="sourcePoint" />
            <mxPoint x="434" y="-1210" as="targetPoint" />
          </mxGeometry>
        </mxCell>
        <mxCell id="gV-HkSjfAiAgL5ac0c7B-20" value="TIDAK" style="text;html=1;align=center;verticalAlign=middle;resizable=0;points=[];autosize=1;strokeColor=none;fillColor=none;" parent="1" vertex="1">
          <mxGeometry x="406" y="-1300" width="60" height="30" as="geometry" />
        </mxCell>
        <mxCell id="NfpK6JRWBrip7_dLDp5m-45" value="" style="endArrow=classic;html=1;rounded=0;entryX=0.5;entryY=0;entryDx=0;entryDy=0;entryPerimeter=0;exitX=0.5;exitY=1;exitDx=0;exitDy=0;" edge="1" parent="1" source="rXHbmidsyB8I2zzbeeDN-8" target="NfpK6JRWBrip7_dLDp5m-44">
          <mxGeometry width="50" height="50" relative="1" as="geometry">
            <mxPoint x="433" y="-910" as="sourcePoint" />
            <mxPoint x="433" y="-550" as="targetPoint" />
          </mxGeometry>
        </mxCell>
        <mxCell id="NfpK6JRWBrip7_dLDp5m-44" value="input ussername &amp;amp; password" style="whiteSpace=wrap;html=1;" vertex="1" parent="1">
          <mxGeometry x="378" y="-740" width="110" height="70" as="geometry" />
        </mxCell>
        <mxCell id="NfpK6JRWBrip7_dLDp5m-47" style="edgeStyle=orthogonalEdgeStyle;rounded=0;orthogonalLoop=1;jettySize=auto;html=1;exitX=0;exitY=0.5;exitDx=0;exitDy=0;exitPerimeter=0;entryX=0;entryY=0.75;entryDx=0;entryDy=0;" edge="1" parent="1" source="NfpK6JRWBrip7_dLDp5m-46" target="rXHbmidsyB8I2zzbeeDN-20">
          <mxGeometry relative="1" as="geometry">
            <Array as="points">
              <mxPoint x="-100" y="-718" />
              <mxPoint x="-100" y="-484" />
            </Array>
          </mxGeometry>
        </mxCell>
        <mxCell id="NfpK6JRWBrip7_dLDp5m-46" value="ingin mengulang&amp;nbsp;" style="strokeWidth=2;html=1;shape=mxgraph.flowchart.decision;whiteSpace=wrap;" vertex="1" parent="1">
          <mxGeometry x="37.5" y="-770" width="112" height="105" as="geometry" />
        </mxCell>
        <mxCell id="NfpK6JRWBrip7_dLDp5m-48" value="YA" style="text;html=1;align=center;verticalAlign=middle;resizable=0;points=[];autosize=1;strokeColor=none;fillColor=none;" vertex="1" parent="1">
          <mxGeometry x="-100" y="-630" width="40" height="30" as="geometry" />
        </mxCell>
        <mxCell id="NfpK6JRWBrip7_dLDp5m-52" value="TIDAK" style="text;html=1;align=center;verticalAlign=middle;resizable=0;points=[];autosize=1;strokeColor=none;fillColor=none;" vertex="1" parent="1">
          <mxGeometry x="240" y="-870" width="60" height="30" as="geometry" />
        </mxCell>
      </root>
    </mxGraphModel>
  </diagram>
</mxfile>
